<svg xmlns="http://www.w3.org/2000/svg" width="700" height="150" viewBox="0 0 700 150">
  <rect x="0.5" y="0.5" width="699" height="149" rx="12" fill="#ffffff" stroke="#d0d7de"/>
  <rect x="0.5" y="0.5" width="699" height="4" rx="2" fill="url(#accent-gradient-light)"/>
  <defs>
    <linearGradient id="accent-gradient-light" x1="0" y1="0" x2="1" y2="0">
      <stop offset="0%" stop-color="#0969da"/>
      <stop offset="50%" stop-color="#8250df"/>
      <stop offset="100%" stop-color="#1a7f37"/>
    </linearGradient>
  </defs>
  <text x="24" y="32" font-family="ui-monospace, monospace" font-size="13" font-weight="600" letter-spacing="2" fill="#57606a">LIFETIME CONTRIBUTIONS</text>
  <text x="676" y="32" text-anchor="end" font-family="ui-monospace, monospace" font-size="11" fill="#57606a">as of 2026-07-17</text>
  <line x1="24" y1="46" x2="676" y2="46" stroke="#d0d7de" stroke-width="1"/>
  <line x1="241" y1="60" x2="241" y2="134" stroke="#d0d7de" stroke-width="1"/><line x1="459" y1="60" x2="459" y2="134" stroke="#d0d7de" stroke-width="1"/>
  <g transform="translate(121, 58)"><line x1="0" y1="12" x2="7" y2="12" stroke="#0969da" stroke-width="2" stroke-linecap="round"/><circle cx="12" cy="12" r="5" fill="none" stroke="#0969da" stroke-width="2"/><line x1="17" y1="12" x2="24" y2="12" stroke="#0969da" stroke-width="2" stroke-linecap="round"/></g><text x="133" y="124" text-anchor="middle" font-family="ui-monospace, monospace" font-size="28" font-weight="700" fill="#24292f">20,819</text><text x="133" y="138" text-anchor="middle" font-family="ui-monospace, monospace" font-size="10" letter-spacing="1.5" fill="#57606a">COMMITS</text><g transform="translate(338, 58)"><circle cx="6" cy="4" r="3" fill="none" stroke="#8250df" stroke-width="2"/><circle cx="6" cy="20" r="3" fill="none" stroke="#8250df" stroke-width="2"/><line x1="6" y1="7" x2="6" y2="17" stroke="#8250df" stroke-width="2"/><circle cx="18" cy="15" r="3" fill="none" stroke="#8250df" stroke-width="2"/><path d="M18 4 v6 a3 3 0 0 1 -3 3 h-3" fill="none" stroke="#8250df" stroke-width="2"/></g><text x="350" y="124" text-anchor="middle" font-family="ui-monospace, monospace" font-size="28" font-weight="700" fill="#24292f">88</text><text x="350" y="138" text-anchor="middle" font-family="ui-monospace, monospace" font-size="10" letter-spacing="1.5" fill="#57606a">PULL REQUESTS</text><g transform="translate(555, 58)"><path d="M2 12 C6 5, 18 5, 22 12 C18 19, 6 19, 2 12 Z" fill="none" stroke="#1a7f37" stroke-width="2"/><circle cx="12" cy="12" r="3.2" fill="#1a7f37"/></g><text x="567" y="124" text-anchor="middle" font-family="ui-monospace, monospace" font-size="28" font-weight="700" fill="#24292f">209</text><text x="567" y="138" text-anchor="middle" font-family="ui-monospace, monospace" font-size="10" letter-spacing="1.5" fill="#57606a">PRs REVIEWED</text>
</svg>
