<svg xmlns="http://www.w3.org/2000/svg" width="700" height="324" viewBox="0 0 700 324">
  <rect x="0.5" y="0.5" width="699" height="323" rx="12" fill="#0d1117" stroke="#30363d"/>
  <rect x="0.5" y="0.5" width="699" height="4" rx="2" fill="url(#stats-gradient-dark)"/>
  <defs>
    <linearGradient id="stats-gradient-dark" x1="0" y1="0" x2="1" y2="0">
      <stop offset="0%" stop-color="#58a6ff"/>
      <stop offset="50%" stop-color="#bc8cff"/>
      <stop offset="100%" stop-color="#3fb950"/>
    </linearGradient>
  </defs>
  <text x="24" y="32" font-family="ui-monospace, monospace" font-size="13" font-weight="600" letter-spacing="2" fill="#8b949e">LIFETIME CONTRIBUTIONS</text>
  <text x="676" y="32" text-anchor="end" font-family="ui-monospace, monospace" font-size="11" fill="#8b949e">as of 2026-07-19</text>
  <line x1="24" y1="46" x2="676" y2="46" stroke="#30363d" stroke-width="1"/>
  <line x1="241" y1="60" x2="241" y2="134" stroke="#30363d" stroke-width="1"/><line x1="459" y1="60" x2="459" y2="134" stroke="#30363d" stroke-width="1"/>
  <g transform="translate(121, 58)"><line x1="0" y1="12" x2="7" y2="12" stroke="#58a6ff" stroke-width="2" stroke-linecap="round"/><circle cx="12" cy="12" r="5" fill="none" stroke="#58a6ff" stroke-width="2"/><line x1="17" y1="12" x2="24" y2="12" stroke="#58a6ff" stroke-width="2" stroke-linecap="round"/></g><text x="133" y="124" text-anchor="middle" font-family="ui-monospace, monospace" font-size="28" font-weight="700" fill="#c9d1d9">20,839</text><text x="133" y="138" text-anchor="middle" font-family="ui-monospace, monospace" font-size="10" letter-spacing="1.5" fill="#8b949e">COMMITS</text><g transform="translate(338, 58)"><circle cx="6" cy="4" r="3" fill="none" stroke="#bc8cff" stroke-width="2"/><circle cx="6" cy="20" r="3" fill="none" stroke="#bc8cff" stroke-width="2"/><line x1="6" y1="7" x2="6" y2="17" stroke="#bc8cff" stroke-width="2"/><circle cx="18" cy="15" r="3" fill="none" stroke="#bc8cff" stroke-width="2"/><path d="M18 4 v6 a3 3 0 0 1 -3 3 h-3" fill="none" stroke="#bc8cff" stroke-width="2"/></g><text x="350" y="124" text-anchor="middle" font-family="ui-monospace, monospace" font-size="28" font-weight="700" fill="#c9d1d9">85</text><text x="350" y="138" text-anchor="middle" font-family="ui-monospace, monospace" font-size="10" letter-spacing="1.5" fill="#8b949e">PULL REQUESTS</text><g transform="translate(555, 58)"><path d="M2 12 C6 5, 18 5, 22 12 C18 19, 6 19, 2 12 Z" fill="none" stroke="#3fb950" stroke-width="2"/><circle cx="12" cy="12" r="3.2" fill="#3fb950"/></g><text x="567" y="124" text-anchor="middle" font-family="ui-monospace, monospace" font-size="28" font-weight="700" fill="#c9d1d9">209</text><text x="567" y="138" text-anchor="middle" font-family="ui-monospace, monospace" font-size="10" letter-spacing="1.5" fill="#8b949e">PRs REVIEWED</text>
  <text x="24" y="182" font-family="ui-monospace, monospace" font-size="13" font-weight="600" letter-spacing="2" fill="#8b949e">TOP LANGUAGES</text>
  <line x1="24" y1="196" x2="676" y2="196" stroke="#30363d" stroke-width="1"/>
  <rect x="24" y="210" width="652" height="14" rx="7" fill="#30363d"/>
  <clipPath id="bar-clip-dark"><rect x="24" y="210" width="652" height="14" rx="7"/></clipPath>
  <g clip-path="url(#bar-clip-dark)">
    <rect x="24.00" y="210" width="346.21" height="14" fill="#3572A5"/><rect x="370.21" y="210" width="228.20" height="14" fill="#ff3e00"/><rect x="598.41" y="210" width="31.30" height="14" fill="#f1e05a"/><rect x="629.71" y="210" width="20.86" height="14" fill="#3178c6"/><rect x="650.57" y="210" width="10.43" height="14" fill="#563d7c"/><rect x="661.00" y="210" width="15.00" height="14" fill="#6e7681"/>
  </g>
  <circle cx="29" cy="246" r="5" fill="#3572A5"/><text x="40" y="250" font-family="ui-monospace, monospace" font-size="12" fill="#c9d1d9">Python <tspan fill="#8b949e">53.1%</tspan></text><circle cx="246" cy="246" r="5" fill="#ff3e00"/><text x="257" y="250" font-family="ui-monospace, monospace" font-size="12" fill="#c9d1d9">Svelte <tspan fill="#8b949e">35.0%</tspan></text><circle cx="464" cy="246" r="5" fill="#f1e05a"/><text x="475" y="250" font-family="ui-monospace, monospace" font-size="12" fill="#c9d1d9">JavaScript <tspan fill="#8b949e">4.8%</tspan></text><circle cx="29" cy="270" r="5" fill="#3178c6"/><text x="40" y="274" font-family="ui-monospace, monospace" font-size="12" fill="#c9d1d9">TypeScript <tspan fill="#8b949e">3.2%</tspan></text><circle cx="246" cy="270" r="5" fill="#563d7c"/><text x="257" y="274" font-family="ui-monospace, monospace" font-size="12" fill="#c9d1d9">CSS <tspan fill="#8b949e">1.6%</tspan></text><circle cx="464" cy="270" r="5" fill="#6e7681"/><text x="475" y="274" font-family="ui-monospace, monospace" font-size="12" fill="#c9d1d9">Other <tspan fill="#8b949e">2.3%</tspan></text>
</svg>
